<svg version="1" xmlns="http://www.w3.org/2000/svg" width="1600" height="1600" viewBox="0 0 1200.000000 1200.000000"><path d="M0 600v600h1200V0H0v600zm1042.5 0v442.5h-885l-.3-441.5c-.1-242.8 0-442.1.3-442.8.3-1 89.4-1.2 442.7-1l442.3.3V600z"/><path d="M173 600v427h854V173H173v427zm751.8 108.6c24.8 42.8 30.1 52.8 29.2 54-1.8 2.1-121.2 2.1-123 0-1.7-2.2 58.5-106.6 61.5-106.6 1.6 0 8.2 10.8 32.3 52.6zM960 817.5v7.5H390v-15h570v7.5zm-625.2 57.1c1.9.5 2.2 1.3 2.2 5.8v5.3l-15.2-.1c-24.1-.1-24.3.1-24.3 29.4 0 29.3.2 29.5 24.3 29.5h15.3l-.3 5.5-.3 5.5-5.5.8c-3 .5-10.9.7-17.5.4-23.9-.8-29-6.7-30.2-35.2-.6-15.4.8-30.9 3.4-35.9 3.3-6.5 7.9-10 15.6-11.6 4.5-1 28.7-.5 32.5.6zm70.7.4c2.2.7 5.6 2.9 7.6 4.9 5.2 5.2 6.3 11.1 6.3 35.1-.1 24-1.1 30-6.3 35.1-5.3 5.4-9.9 6.4-28.6 6.4-15.4 0-16.2-.1-21.6-2.7-7.2-3.6-9.6-7.8-10.9-19-2.2-19.1-.6-45.1 3.2-51.9 2.3-4.1 7.7-7.6 14-8.9 5.8-1.2 31.3-.5 36.3 1zm224.3-.4c1.9.5 2.2 1.3 2.2 5.8v5.3l-15.2-.1c-24.1-.1-24.3.1-24.3 29.4 0 29.3.2 29.5 24.3 29.5h15.3l-.3 5.5-.3 5.5-5.5.8c-3 .5-10.9.7-17.5.4-23.9-.8-29-6.7-30.2-35.2-.6-15.4.8-30.9 3.4-35.9 3.3-6.5 7.9-10 15.6-11.6 4.5-1 28.7-.5 32.5.6zm68 0c3.2.6 3.2.7 3.2 6.3v5.7l-15.2-.4c-15.8-.4-22.3.5-25.3 3.4-2 2.1-2.1 12.7 0 14.8.8.8 4.1 1.8 7.2 2.1 29.6 3.4 30.8 3.8 34.8 10.5 2.4 4.2 3.3 18.4 1.5 25-1.7 6.4-7.1 11.4-13.8 12.9-5.7 1.2-36 1.4-40.2.2-2.2-.6-2.5-1.3-2.8-5.5-.2-2.7 0-5.2.5-5.6.4-.4 6-.3 12.3.2 15.3 1.2 25.3.3 28.6-2.5 2.2-2 2.5-3 2.5-9.1 0-4.7-.4-7.4-1.4-8.4-1-.9-6.9-2.1-16.7-3.3-16.7-2-21.1-3.6-24.7-8.8-4.2-6.2-4.3-21.7-.2-29.1 2.7-4.7 7-7.7 13.1-9 4.4-.9 30.6-.5 36.6.6zM469.4 903c6.6 16 12.2 28.8 12.5 28.4.3-.3 5.8-13.2 12.2-28.7l11.7-28.2 9.1-.3 9.1-.3V956h-13l-.2-29.1-.3-29.1-12 28.8-12 28.9-5 .3-5 .3-12-29-12-29.1-.3 29-.2 29h-13v-82h18.5l11.9 29zm89.7-28c0 .5.1 18.3.1 39.5s-.1 39.2-.1 40c-.1 1.2-1.5 1.5-6.6 1.5H546v-82h6.5c3.6 0 6.5.4 6.6 1zm212.2.9c5.1 1.6 10.3 6.4 11.9 10.9.9 2.7 1.3 10.5 1.3 28.2 0 27.3-.5 30-6 34.9-5.4 4.7-9.1 5.3-33.2 5.8l-22.3.5v-82.4l22.3.5c13.1.2 23.7.9 26 1.6zM860 880v6h-41.7v22H854v12h-35.6l-.1 12-.1 12H860v12h-55v-82h55v6zm48.6 20.2c9.7 14.5 18.3 27 19 27.8 1.2 1.2 1.4-2.7 1.4-26.3V874h13v82h-6.7l-6.8-.1-19-28.1-19-28.1-.3 28.1-.2 28.2h-13v-82h13.9l17.7 26.2z"/><path d="M880.4 684.7c-6.5 11.4-12 21-12.2 21.5-.2.4 10.7.8 24.2.8s24.6-.2 24.6-.4c0-.3-23.9-41.8-24.4-42.3-.1-.2-5.6 9-12.2 20.4zM868 712.4c0 1.1 24.1 42.1 24.6 41.9.6-.2 24.4-41.1 24.4-41.9 0-.2-11-.4-24.5-.4s-24.5.2-24.5.4zM850.3 737l-12.1 21h24.5c13.5 0 24.3-.4 24.1-.8-1.1-2.8-23.4-41.1-23.9-41.2-.3 0-6 9.4-12.6 21zM910 736.2c-6.3 11.1-11.6 20.5-11.8 21-.2.4 10.6.8 24.1.8h24.5l-11.9-20.8c-6.6-11.4-12.2-20.8-12.7-20.9-.4-.1-5.9 8.8-12.2 19.9zM373 886c-7.3 1.8-8.4 6.3-7.8 33.7.4 24.8.5 24.8 20.3 24.8 20.1 0 20 .2 20-29 0-22.4-.7-26.4-4.9-28.7-2.6-1.4-22.8-2-27.6-.8zM736.3 915v29.2l13.6-.4c15.2-.5 18.3-1.5 20.3-6.2 1.7-4.1 1.8-40.8.1-44.8-2.3-5.2-5.2-6.1-20.2-6.6l-13.8-.4V915z"/></svg>